<svg width="1440" height="116" viewBox="0 0 1440 116" fill="none" xmlns="http://www.w3.org/2000/svg">
<g opacity="0.1">
<rect x="-1" width="1441" height="118" fill="#FFCF00"/>
<rect x="-1" width="39.45" height="39.45" fill="#212121"/>
<rect x="38.45" y="39.4502" width="39.45" height="39.45" fill="#212121"/>
<rect x="-1" y="78.8999" width="39.45" height="39.45" fill="#212121"/>
<rect x="77.8999" width="39.45" height="39.45" fill="#212121"/>
<rect x="117.35" y="39.4502" width="39.45" height="39.45" fill="#212121"/>
<rect x="77.8999" y="78.8999" width="39.45" height="39.45" fill="#212121"/>
<rect x="156.8" width="39.45" height="39.45" fill="#212121"/>
<rect x="196.25" y="39.4502" width="39.45" height="39.45" fill="#212121"/>
<rect x="156.8" y="78.8999" width="39.45" height="39.45" fill="#212121"/>
<rect x="235.7" width="39.45" height="39.45" fill="#212121"/>
<rect x="275.15" y="39.4502" width="39.45" height="39.45" fill="#212121"/>
<rect x="235.7" y="78.8999" width="39.45" height="39.45" fill="#212121"/>
<rect x="314.6" width="39.45" height="39.45" fill="#212121"/>
<rect x="354.05" y="39.4502" width="39.45" height="39.45" fill="#212121"/>
<rect x="314.6" y="78.8999" width="39.45" height="39.45" fill="#212121"/>
<rect x="393.5" width="39.45" height="39.45" fill="#212121"/>
<rect x="432.95" y="39.4502" width="39.45" height="39.45" fill="#212121"/>
<rect x="393.5" y="78.8999" width="39.45" height="39.45" fill="#212121"/>
<rect x="472.4" width="39.45" height="39.45" fill="#212121"/>
<rect x="511.85" y="39.4502" width="39.45" height="39.45" fill="#212121"/>
<rect x="472.4" y="78.8999" width="39.45" height="39.45" fill="#212121"/>
<rect x="551.3" width="39.45" height="39.45" fill="#212121"/>
<rect x="590.75" y="39.4502" width="39.45" height="39.45" fill="#212121"/>
<rect x="551.3" y="78.8999" width="39.45" height="39.45" fill="#212121"/>
<rect x="630.2" width="39.45" height="39.45" fill="#212121"/>
<rect x="669.65" y="39.4502" width="39.45" height="39.45" fill="#212121"/>
<rect x="630.2" y="78.8999" width="39.45" height="39.45" fill="#212121"/>
<rect x="709.1" width="39.45" height="39.45" fill="#212121"/>
<rect x="748.55" y="39.4502" width="39.45" height="39.45" fill="#212121"/>
<rect x="709.1" y="78.9001" width="39.45" height="39.45" fill="#212121"/>
<rect x="788" width="39.45" height="39.45" fill="#212121"/>
<rect x="827.45" y="39.4502" width="39.45" height="39.45" fill="#212121"/>
<rect x="788" y="78.8999" width="39.45" height="39.45" fill="#212121"/>
<rect x="866.9" width="39.45" height="39.45" fill="#212121"/>
<rect x="906.35" y="39.4502" width="39.45" height="39.45" fill="#212121"/>
<rect x="866.9" y="78.8999" width="39.45" height="39.45" fill="#212121"/>
<rect x="945.8" width="39.45" height="39.45" fill="#212121"/>
<rect x="985.25" y="39.4502" width="39.45" height="39.45" fill="#212121"/>
<rect x="945.8" y="78.8999" width="39.45" height="39.45" fill="#212121"/>
<rect x="1024.7" width="39.45" height="39.45" fill="#212121"/>
<rect x="1064.15" y="39.4502" width="39.45" height="39.45" fill="#212121"/>
<rect x="1024.7" y="78.8999" width="39.45" height="39.45" fill="#212121"/>
<rect x="1103.6" width="39.45" height="39.45" fill="#212121"/>
<rect x="1143.05" y="39.4502" width="39.45" height="39.45" fill="#212121"/>
<rect x="1103.6" y="78.8999" width="39.45" height="39.45" fill="#212121"/>
<rect x="1182.5" width="39.45" height="39.45" fill="#212121"/>
<rect x="1221.95" y="39.4502" width="39.45" height="39.45" fill="#212121"/>
<rect x="1182.5" y="78.8999" width="39.45" height="39.45" fill="#212121"/>
<rect x="1261.4" width="39.45" height="39.45" fill="#212121"/>
<rect x="1300.85" y="39.4502" width="39.45" height="39.45" fill="#212121"/>
<rect x="1261.4" y="78.8999" width="39.45" height="39.45" fill="#212121"/>
<rect x="1340.3" width="39.45" height="39.45" fill="#212121"/>
<rect x="1379.75" y="39.4502" width="39.45" height="39.45" fill="#212121"/>
<rect x="1340.3" y="78.8999" width="39.45" height="39.45" fill="#212121"/>
<rect x="1419" width="21" height="39" fill="#212121"/>
<rect x="1419" y="79" width="21" height="39" fill="#212121"/>
</g>
</svg>
